<?xml version="1.0" encoding="UTF-8" standalone="no"?>
<svg
   width="790"
   height="790"
   viewBox="0 0 592.49991 592.49965"
   version="1.1"
   id="svg3"
   sodipodi:docname="icon.svg"
   inkscape:version="1.1.1 (3bf5ae0d25, 2021-09-20)"
   xmlns:inkscape="http://www.inkscape.org/namespaces/inkscape"
   xmlns:sodipodi="http://sodipodi.sourceforge.net/DTD/sodipodi-0.dtd"
   xmlns="http://www.w3.org/2000/svg"
   xmlns:svg="http://www.w3.org/2000/svg">
  <defs
     id="defs7" />
  <sodipodi:namedview
     id="namedview5"
     pagecolor="#505050"
     bordercolor="#eeeeee"
     borderopacity="1"
     inkscape:pageshadow="0"
     inkscape:pageopacity="0"
     inkscape:pagecheckerboard="0"
     inkscape:document-units="in"
     showgrid="false"
     fit-margin-top="0"
     fit-margin-left="0"
     fit-margin-right="0"
     fit-margin-bottom="0"
     units="px"
     inkscape:zoom="0.53416778"
     inkscape:cx="129.1729"
     inkscape:cy="462.40153"
     inkscape:window-width="1920"
     inkscape:window-height="1011"
     inkscape:window-x="0"
     inkscape:window-y="32"
     inkscape:window-maximized="1"
     inkscape:current-layer="svg3" />
  <path
     id="Auswahl"
     fill="none"
     stroke="#000000"
     stroke-width="1"
     d="m 210.63838,3.1327461 c 5.83,0.26 11.92,8.5799999 16,12.6599999 0,0 39,38 39,38 0,0 55,55.000004 55,55.000004 0,0 12.94,13 12.94,13 1.82,2 3.9,4.08 2.89,7 -1,2.89 -13.83,15 -16.83,18 0,0 -40,40 -40,40 0,0 -12,12 -12,12 -1.59,1.58 -4.88,5.13 -7,5.66 -4.09,1.03 -13.99,-10.65 -17,-13.66 0,0 -47,-47 -47,-47 0,0 -45,-45.000004 -45,-45.000004 0,0 -12,-12 -12,-12 -1.4,-1.43 -4.18,-4.06 -4.66,-6 -0.71,-2.83 1.93,-5.16 3.68,-7 0,0 12.98,-13 12.98,-13 0,0 39,-39 39,-39 4.96,-4.96 14.44,-15.6299999 20,-18.6599999 z m -59,300.6600039 c 0,0 38,-18.75 38,-18.75 0,0 69,-34.5 69,-34.5 0,0 29,-14.5 29,-14.5 0,0 14,-5.83 14,-5.83 0,0 14,5.83 14,5.83 0,0 29,14.5 29,14.5 0,0 69,34.5 69,34.5 0,0 38,18.75 38,18.75 0,0 0,2 0,2 0,0 -38,18.75 -38,18.75 0,0 -69,34.5 -69,34.5 0,0 -29,14.5 -29,14.5 0,0 -14,5.83 -14,5.83 0,0 -14,-5.83 -14,-5.83 0,0 -29,-14.5 -29,-14.5 0,0 -69,-34.5 -69,-34.5 0,0 -38,-18.75 -38,-18.75 0,0 0,-2 0,-2 z m 212,-21 c 0,0 -19,-8.22 -19,-8.22 0,0 -10,3.97 -10,3.97 0,0 -20,10 -20,10 0,0 -46,23 -46,23 0,0 -28,14.25 -28,14.25 3.57,2.84 15.65,9.68 20,8.83 2.1,-0.41 9.61,-4.39 12,-5.58 0,0 22,-11 22,-11 0,0 46,-23 46,-23 5.87,-2.94 18.42,-8.61 23,-12.25 z m -218,37 c 0,0 39,18.75 39,18.75 0,0 75,37.5 75,37.5 0,0 28,14 28,14 0,0 14,5.97 14,5.97 0,0 14,-5.97 14,-5.97 0,0 28,-14 28,-14 0,0 75,-37.5 75,-37.5 0,0 39,-18.75 39,-18.75 0,0 0,185 0,185 -0.02,9.35 -0.13,7.81 -15,15.25 0,0 -44,22 -44,22 0,0 -68,34 -68,34 0,0 -19,9.5 -19,9.5 -2.71,1.36 -7.01,3.83 -10,3.83 -2.87,0 -6.45,-2.06 -9,-3.33 0,0 -18,-9 -18,-9 0,0 -64,-32 -64,-32 0,0 -49,-24.5 -49,-24.5 -15.83,-7.91 -15.98,-6.31 -16,-15.75 0,0 0,-185 0,-185 z"
     style="fill:#000000" />
</svg>
